<?xml version="1.0" encoding="utf-8"?>
<!-- Generator: Adobe Illustrator 23.0.3, SVG Export Plug-In . SVG Version: 6.00 Build 0)  -->
<svg version="1.1" id="Layer_1" xmlns="http://www.w3.org/2000/svg" xmlns:xlink="http://www.w3.org/1999/xlink" x="0px" y="0px"
	 viewBox="0 0 512 512" style="enable-background:new 0 0 512 512;" xml:space="preserve">
<style type="text/css">
	.st0{fill:#E9022E;}
	.st1{fill:#E8D780;}
	.st2{fill:#020202;}
	.st3{fill:#FEFEFE;}
	.st4{fill:#FDFDFD;}
	.st5{fill:#EEEEEE;}
	.st6{fill:#F5F5F5;}
	.st7{fill:#010101;}
	.st8{fill:#FAFAFA;}
	.st9{fill:#D8D8D8;}
	.st10{fill:#030303;}
	.st11{fill:#F8F8F8;}
	.st12{fill:#E6E6E6;}
	.st13{fill:#060606;}
	.st14{fill:#040404;}
	.st15{fill:#181818;}
	.st16{fill:#101010;}
	.st17{fill:#121212;}
	.st18{fill:#FCFCFC;}
	.st19{fill:#0B0B0B;}
	.st20{fill:#0E0E0E;}
	.st21{fill:#FFFFFF;}
	.st22{fill:#723B22;}
	.st23{fill:#052625;}
	.st24{fill:#EAD6C7;}
	.st25{fill:#B07454;}
	.st26{fill:#78CDD4;}
</style>
<circle class="st0" cx="256" cy="256" r="244.3"/>
<g>
	<path class="st21" d="M258.2,397c-44,0-88,0-132.1,0c-1.6,0-3.1,0.4-4.7,0.4c-4,0-8.1-4.3-6.5-7.4c3.9-7.1,5.7-15,9.4-22
		c4.3-8.2,11.6-12.9,19.5-17.1c13.5-7.3,26.8-15,40.2-22.5c4.9-2.8,9.9-5.5,14.9-8.1c9.7-4.9,14-13.6,16.9-23.3c0.9-3,1.6-6,3-8.9
		c1.8-3.8,0.5-6-3.5-7.5c-9.5-3.5-18.2-8.4-26.6-14c-3.6-2.4-4-4.7-2-9.1c3-6.6,4.9-13.7,6.5-21c5.2-23.8,2.4-48.3,7.4-72
		c3.7-17.6,11.7-32.5,28.9-40.6c2.3-1.1,4.6-1.9,7.2-2.2c2.2-0.2,4.8-0.4,6.1-2.2c5.2-7,12.5-5,19-4.2c14.6,1.7,27.7,7.1,37.3,18.9
		c7.1,8.8,11.1,18.9,13.2,30.1c3.7,19.3,1.5,39,4.7,58.2c1.4,8.7,1.9,17.8,5.7,26c1.7,3.7,1.7,7.9,4.1,11.4c1.6,2.3-0.4,4.4-2.3,6
		c-8,6.5-17.2,10.9-26.8,14.4c-5.7,2-6.3,3.2-3.5,8.8c2.7,5.5,3.6,11.7,6.2,17.2c2.7,5.6,6.3,9.9,11.8,12.9
		c14.1,7.8,28.1,15.9,42.2,23.9c6.7,3.8,13.3,7.5,20.1,11.1c8.3,4.3,13,11.5,16.4,19.9c1.9,4.8,3.9,9.6,6,14.3
		c1.9,4.3-0.8,8.8-5.7,8.8c-44.3,0-88.7,0-133,0C258.2,397.2,258.2,397.1,258.2,397z"/>
</g>
</svg>
